<?xml version="1.0" encoding="UTF-8" standalone="no"?>
<!-- Generator: Adobe Illustrator 18.1.1, SVG Export Plug-In . SVG Version: 6.00 Build 0)  -->

<svg
   xmlns:dc="http://purl.org/dc/elements/1.1/"
   xmlns:cc="http://creativecommons.org/ns#"
   xmlns:rdf="http://www.w3.org/1999/02/22-rdf-syntax-ns#"
   xmlns:svg="http://www.w3.org/2000/svg"
   xmlns="http://www.w3.org/2000/svg"
   xmlns:sodipodi="http://sodipodi.sourceforge.net/DTD/sodipodi-0.dtd"
   xmlns:inkscape="http://www.inkscape.org/namespaces/inkscape"
   version="1.1"
   id="Layer_1"
   x="0px"
   y="0px"
   viewBox="0 0 744.2 113.5"
   enable-background="new 0 0 744.2 113.5"
   xml:space="preserve"
   sodipodi:docname="Troniqs Rationale Logo Set SVG.svg"
   inkscape:version="0.92.3 (2405546, 2018-03-11)"><metadata
   id="metadata121"><rdf:RDF><cc:Work
       rdf:about=""><dc:format>image/svg+xml</dc:format><dc:type
         rdf:resource="http://purl.org/dc/dcmitype/StillImage" /></cc:Work></rdf:RDF></metadata><defs
   id="defs119" /><sodipodi:namedview
   pagecolor="#ffffff"
   bordercolor="#666666"
   borderopacity="1"
   objecttolerance="10"
   gridtolerance="10"
   guidetolerance="10"
   inkscape:pageopacity="0"
   inkscape:pageshadow="2"
   inkscape:window-width="1920"
   inkscape:window-height="1001"
   id="namedview117"
   showgrid="false"
   inkscape:zoom="0.4555227"
   inkscape:cx="366.61181"
   inkscape:cy="56.75"
   inkscape:window-x="-9"
   inkscape:window-y="-9"
   inkscape:window-maximized="1"
   inkscape:current-layer="Layer_1" />
<g
   id="g18">
	<path
   fill="#010101"
   d="M268.4,70c0,0,6.2-0.8,7.5-8.4l41.2,47.6l-3.6,3.2L268.4,70z"
   id="path2" />
	<g
   id="g16">
		<g
   id="g8">
			<path
   fill="#010101"
   d="M278.5,41.5c-0.8,17-14.6,30.7-31.7,31.2l2.3,3.6l-2.3,3.5c21-0.5,38.1-17.4,38.9-38.4l-3.7-2.3     L278.5,41.5z"
   id="path4" />
			<path
   fill="#010101"
   d="M212.9,40.7l-3.7,2.3l-3.5-2.3c0.4,21.3,17.5,38.5,38.7,39.2l2.3-3.5l-2.3-3.7     C227.2,72.1,213.3,58,212.9,40.7z"
   id="path6" />
		</g>
		<g
   id="g14">
			<path
   fill="#010101"
   d="M242.6,3.5l2.3-3.5c-21.1,0.4-38.3,17.3-39.1,38.4l3.5,2.3l3.7-2.3l0,0c0.8-17.1,14.8-30.8,32-31.2     L242.6,3.5z"
   id="path10" />
			<path
   fill="#010101"
   d="M247.2,0L245,3.5l2.3,3.7l0,0c17.1,0.8,30.9,14.8,31.3,32l3.5-2.3l3.7,2.3C285.3,18,268.3,0.8,247.2,0z"
   id="path12" />
		</g>
	</g>
</g>
<g
   id="g28">
	<path
   fill="#010101"
   stroke="#FFFAFA"
   stroke-width="1.5"
   stroke-miterlimit="10"
   d="M239.2,39.9c0-3.6-2.9-6.5-6.4-6.5   c-3.5,0-6.4,2.9-6.4,6.5h-9.6c0,16.1,12.9,29.2,28.9,29.2V39.9H239.2z"
   id="path20" />
	<path
   fill="#A92626"
   stroke="#FFFAFA"
   stroke-width="1.5"
   stroke-miterlimit="10"
   d="M274.6,39.9c0,16.1-12.9,29.2-28.9,29.2v-8.9   c-0.1,0-0.1,0-0.2,0c-3.6,0-6.5-3-6.5-6.7c0-3.7,2.9-6.7,6.5-6.7c0.1,0,0.1,0,0.2,0v-6.9H274.6z"
   id="path22" />
	<path
   fill="#010101"
   stroke="#FFFAFA"
   stroke-width="1.5"
   stroke-miterlimit="10"
   d="M245.7,10.7v29.2h6.4c0,3.6,2.9,6.5,6.4,6.5   c3.5,0,6.4-2.9,6.4-6.5h9.6C274.6,23.7,261.6,10.7,245.7,10.7z"
   id="path24" />
	<path
   fill="#A92626"
   stroke="#FFFAFA"
   stroke-width="1.5"
   stroke-miterlimit="10"
   d="M245.7,20.4v-9.7c-16,0-28.9,13.1-28.9,29.2   h9.6c0-3.6,2.9-6.5,6.4-6.5c3.5,0,6.4,2.9,6.4,6.5h6.4v-6.5c3.5,0,6.4-2.9,6.4-6.5C252.1,23.3,249.2,20.4,245.7,20.4z"
   id="path26" />
</g>
<g
   id="g108"
   inkscape:export-xdpi="96"
   inkscape:export-ydpi="96">
	<g
   id="g60">
		<path
   fill="#010101"
   d="M26,18.2v46.7h-9.3V18.2H0V9.7h42.7v8.5H26z"
   id="path30" />
		<path
   fill="#010101"
   d="M73.5,31.2c-4.4,0-7.6,1.4-9.9,4.3s-3.3,6.7-3.3,11.5v18h-8.8v-42h8.8v8.5c1.4-2.6,3.3-4.8,5.8-6.5    s5-2.6,7.8-2.6l0.1,8.9C73.9,31.2,73.7,31.2,73.5,31.2z"
   id="path32" />
		<path
   fill="#010101"
   d="M117.1,59.2c-4.2,4.2-9.5,6.3-15.8,6.3s-11.6-2.1-15.8-6.3c-4.2-4.2-6.3-9.3-6.3-15.4s2.1-11.2,6.3-15.4    c4.2-4.2,9.5-6.3,15.8-6.3s11.6,2.1,15.8,6.3c4.2,4.2,6.3,9.3,6.3,15.4S121.3,55.1,117.1,59.2z M91.9,53.8    c2.5,2.6,5.7,3.8,9.5,3.8c3.8,0,7-1.3,9.5-3.8c2.5-2.6,3.7-5.9,3.7-9.9s-1.2-7.4-3.7-9.9c-2.5-2.6-5.7-3.8-9.5-3.8    c-3.8,0-7,1.3-9.5,3.8c-2.5,2.6-3.7,5.9-3.7,9.9S89.4,51.2,91.9,53.8z"
   id="path34" />
		<path
   fill="#010101"
   d="M142.3,42.1v22.8h-8.8v-42h8.8v7.7c1.4-2.6,3.4-4.6,5.9-6.1c2.5-1.5,5.2-2.2,8.1-2.2    c4.7,0,8.6,1.4,11.5,4.3c2.9,2.9,4.4,7.1,4.4,12.6v25.8h-8.8V41.8c0-7.7-3.2-11.6-9.6-11.6c-3,0-5.7,1-8,3    C143.4,35.3,142.3,38.2,142.3,42.1z"
   id="path36" />
		<path
   fill="#010101"
   d="M184.9,14.5c-1.1-1.1-1.7-2.4-1.7-3.9s0.6-2.8,1.7-4c1.1-1.1,2.4-1.7,3.9-1.7c1.5,0,2.8,0.6,3.9,1.7    c1.1,1.1,1.7,2.4,1.7,4s-0.6,2.8-1.7,3.9c-1.1,1.1-2.4,1.7-3.9,1.7C187.3,16.2,186,15.6,184.9,14.5z M193.2,64.9h-8.8v-42h8.8    V64.9z"
   id="path38" />
		<path
   fill="#010101"
   d="M330.4,52.3c0,4-1.4,7.2-4.3,9.6c-2.9,2.4-6.6,3.6-11.1,3.6c-3,0-6.2-0.6-9.5-1.7    c-3.3-1.1-6.2-2.7-8.7-4.7l4.3-6.9c4.9,3.7,9.6,5.5,14.2,5.5c2,0,3.6-0.5,4.7-1.4c1.2-0.9,1.7-2.1,1.7-3.5c0-2.1-2.8-4-8.4-5.7    c-0.4-0.2-0.7-0.3-0.9-0.3c-8.7-2.4-13.1-6.3-13.1-11.9c0-3.9,1.5-7,4.5-9.4c3-2.3,6.9-3.5,11.8-3.5c4.8,0,9.4,1.4,13.7,4.3    l-3.3,6.6c-3.4-2.3-7.1-3.4-11.1-3.4c-2.1,0-3.8,0.4-5.1,1.1c-1.3,0.8-2,1.9-2,3.4c0,1.4,0.7,2.4,2,3c0.9,0.5,2.3,0.9,4,1.3    c1.7,0.4,3.2,0.8,4.5,1.3c1.3,0.4,2.6,0.9,3.8,1.4c1.2,0.5,2.6,1.3,4,2.2C329,45.4,330.4,48.3,330.4,52.3z"
   id="path40" />
		<path
   fill="#A92626"
   d="M407.2,27.6c0,9.1-4,14.9-11.9,17.2l14.4,20.1h-11.8l-13.2-18.6h-12.2v18.6h-9.3V9.7h20.5    c8.4,0,14.4,1.4,18,4.3C405.4,16.8,407.2,21.3,407.2,27.6z M394.9,35.4c1.9-1.6,2.8-4.3,2.8-7.9s-1-6.1-2.9-7.4    c-1.9-1.3-5.4-2-10.4-2h-11.8v19.8h11.6C389.4,37.9,393,37.1,394.9,35.4z"
   id="path42" />
		<path
   fill="#A92626"
   d="M452.6,64.9h-8v-5.6c-3.5,4.2-8.1,6.2-14,6.2c-4.4,0-8-1.2-10.8-3.7c-2.9-2.5-4.3-5.8-4.3-9.9    s1.5-7.2,4.6-9.3c3-2.1,7.2-3.1,12.4-3.1h11.4V38c0-5.6-3.1-8.4-9.3-8.4c-3.9,0-7.9,1.4-12.1,4.3l-3.9-5.5    c5.1-4.1,10.9-6.1,17.3-6.1c4.9,0,9,1.3,12.1,3.8c3.1,2.5,4.7,6.4,4.7,11.8V64.9z M443.7,49.3v-3.6h-9.9c-6.4,0-9.5,2-9.5,6    c0,2.1,0.8,3.6,2.4,4.7c1.6,1.1,3.8,1.6,6.6,1.6c2.8,0,5.3-0.8,7.4-2.4C442.7,54.1,443.7,51.9,443.7,49.3z"
   id="path44" />
		<path
   fill="#A92626"
   d="M475.3,30v21.3c0,2,0.5,3.6,1.6,4.8c1,1.2,2.5,1.8,4.4,1.8c1.9,0,3.7-0.9,5.4-2.8l3.6,6.2    c-3.1,2.8-6.5,4.2-10.3,4.2c-3.8,0-7-1.3-9.6-3.9c-2.7-2.6-4-6.1-4-10.5V30h-5.3v-7.1h5.3V9.7h8.8v13.2h11V30H475.3z"
   id="path46" />
		<path
   fill="#A92626"
   d="M497.9,14.5c-1.1-1.1-1.7-2.4-1.7-3.9s0.6-2.8,1.7-4c1.1-1.1,2.4-1.7,3.9-1.7c1.5,0,2.8,0.6,3.9,1.7    c1.1,1.1,1.7,2.4,1.7,4s-0.6,2.8-1.7,3.9c-1.1,1.1-2.4,1.7-3.9,1.7C500.3,16.2,499,15.6,497.9,14.5z M506.2,64.9h-8.8v-42h8.8    V64.9z"
   id="path48" />
		<path
   fill="#A92626"
   d="M554,59.2c-4.2,4.2-9.5,6.3-15.8,6.3s-11.6-2.1-15.8-6.3c-4.2-4.2-6.3-9.3-6.3-15.4s2.1-11.2,6.3-15.4    c4.2-4.2,9.5-6.3,15.8-6.3s11.6,2.1,15.8,6.3c4.2,4.2,6.3,9.3,6.3,15.4S558.2,55.1,554,59.2z M528.8,53.8c2.5,2.6,5.7,3.8,9.5,3.8    c3.8,0,7-1.3,9.5-3.8c2.5-2.6,3.7-5.9,3.7-9.9s-1.2-7.4-3.7-9.9c-2.5-2.6-5.7-3.8-9.5-3.8c-3.8,0-7,1.3-9.5,3.8    c-2.5,2.6-3.7,5.9-3.7,9.9S526.3,51.2,528.8,53.8z"
   id="path50" />
		<path
   fill="#A92626"
   d="M579.2,42.1v22.8h-8.8v-42h8.8v7.7c1.4-2.6,3.4-4.6,5.9-6.1c2.5-1.5,5.2-2.2,8.1-2.2    c4.7,0,8.6,1.4,11.5,4.3c2.9,2.9,4.4,7.1,4.4,12.6v25.8h-8.8V41.8c0-7.7-3.2-11.6-9.6-11.6c-3,0-5.7,1-8,3    C580.3,35.3,579.2,38.2,579.2,42.1z"
   id="path52" />
		<path
   fill="#A92626"
   d="M655.2,64.9h-8v-5.6c-3.5,4.2-8.1,6.2-14,6.2c-4.4,0-8-1.2-10.8-3.7c-2.9-2.5-4.3-5.8-4.3-9.9    s1.5-7.2,4.6-9.3c3-2.1,7.2-3.1,12.4-3.1h11.4V38c0-5.6-3.1-8.4-9.3-8.4c-3.9,0-7.9,1.4-12.1,4.3l-3.9-5.5    c5.1-4.1,10.9-6.1,17.3-6.1c4.9,0,9,1.3,12.1,3.8c3.1,2.5,4.7,6.4,4.7,11.8V64.9z M646.4,49.3v-3.6h-9.9c-6.4,0-9.5,2-9.5,6    c0,2.1,0.8,3.6,2.4,4.7c1.6,1.1,3.8,1.6,6.6,1.6c2.8,0,5.3-0.8,7.4-2.4C645.3,54.1,646.4,51.9,646.4,49.3z"
   id="path54" />
		<path
   fill="#A92626"
   d="M676.3,64.9h-8.8V6.3h8.8V64.9z"
   id="path56" />
		<path
   fill="#A92626"
   d="M728.1,47.8h-32.9c0.2,3.1,1.6,5.5,4.2,7.4c2.6,1.9,5.5,2.8,8.8,2.8c5.3,0,9.2-1.7,12-5l5,5.5    c-4.5,4.7-10.4,7-17.7,7c-5.9,0-10.9-2-15-5.9c-4.1-3.9-6.2-9.2-6.2-15.8c0-6.6,2.1-11.9,6.3-15.8c4.2-3.9,9.2-5.8,14.9-5.8    c5.7,0,10.5,1.7,14.5,5.2c4,3.5,6,8.2,6,14.3V47.8z M695.3,40.8h24c0-3.5-1.1-6.2-3.3-8.1c-2.2-1.9-4.9-2.8-8.2-2.8    c-3.2,0-6.1,1-8.7,3C696.5,34.8,695.3,37.4,695.3,40.8z"
   id="path58" />
	</g>
	<g
   id="g106">
		<path
   fill="#010101"
   d="M371.8,89.5c-1,0-1.9,0.2-2.5,0.6s-1,1.1-1,1.9c0,0.9,0.3,1.5,1,2c0.7,0.4,2.1,0.9,4.2,1.5    c2.2,0.5,3.8,1.3,4.9,2.2c1.1,0.9,1.6,2.3,1.6,4.2s-0.7,3.3-2.1,4.5c-1.4,1.1-3.2,1.7-5.4,1.7c-3.3,0-6.2-1.1-8.7-3.4l2.2-2.7    c2.1,1.8,4.3,2.8,6.6,2.8c1.1,0,2-0.2,2.7-0.7c0.7-0.5,1-1.1,1-2c0-0.8-0.3-1.4-0.9-1.9s-1.7-0.9-3.3-1.2c-1.5-0.4-2.7-0.7-3.5-1    c-0.8-0.3-1.5-0.7-2.1-1.2c-1.2-0.9-1.9-2.4-1.9-4.3c0-1.9,0.7-3.4,2.1-4.5s3.2-1.6,5.2-1.6c1.3,0,2.7,0.2,4,0.7    c1.3,0.4,2.5,1.1,3.4,1.9l-1.9,2.7c-0.6-0.6-1.5-1-2.5-1.4C373.9,89.6,372.8,89.5,371.8,89.5z"
   id="path62" />
		<path
   fill="#010101"
   d="M392.4,91.5c2.1,0,4,0.7,5.5,2.2c1.5,1.5,2.3,3.5,2.3,5.9s-0.8,4.5-2.3,6c-1.5,1.5-3.3,2.3-5.3,2.3    s-3.8-0.9-5.4-2.6v8.2h-3.4V91.7h3.4v2.8C388.5,92.5,390.3,91.5,392.4,91.5z M387.2,99.7c0,1.5,0.5,2.8,1.4,3.7    c0.9,1,2,1.5,3.4,1.5c1.3,0,2.5-0.5,3.5-1.4c1-1,1.5-2.2,1.5-3.7c0-1.5-0.5-2.8-1.4-3.8c-1-1-2.1-1.5-3.5-1.5s-2.5,0.5-3.4,1.5    C387.6,96.9,387.2,98.2,387.2,99.7z"
   id="path64" />
		<path
   fill="#010101"
   d="M417.4,105.5c-1.6,1.6-3.6,2.4-6,2.4c-2.4,0-4.4-0.8-6-2.4c-1.6-1.6-2.4-3.5-2.4-5.8    c0-2.3,0.8-4.2,2.4-5.8c1.6-1.6,3.6-2.4,6-2.4c2.4,0,4.4,0.8,6,2.4c1.6,1.6,2.4,3.5,2.4,5.8C419.8,102,419,103.9,417.4,105.5z     M407.8,103.4c0.9,1,2.2,1.5,3.6,1.5c1.5,0,2.7-0.5,3.6-1.5c1-1,1.4-2.2,1.4-3.8c0-1.5-0.5-2.8-1.4-3.8c-0.9-1-2.2-1.5-3.6-1.5    c-1.5,0-2.7,0.5-3.6,1.5c-1,1-1.4,2.2-1.4,3.8C406.3,101.2,406.8,102.5,407.8,103.4z"
   id="path66" />
		<path
   fill="#010101"
   d="M427.5,94.4v8.1c0,0.8,0.2,1.4,0.6,1.8s1,0.7,1.7,0.7c0.7,0,1.4-0.3,2.1-1l1.4,2.4    c-1.2,1.1-2.5,1.6-3.9,1.6s-2.7-0.5-3.7-1.5s-1.5-2.3-1.5-4v-8h-2v-2.7h2v-5h3.4v5h4.2v2.7H427.5z"
   id="path68" />
		<path
   fill="#010101"
   d="M435.4,105.7c0-0.6,0.2-1.2,0.7-1.6c0.4-0.4,1-0.6,1.6-0.6c0.6,0,1.1,0.2,1.6,0.6c0.4,0.4,0.7,0.9,0.7,1.5    c0,0.6-0.3,1.3-0.8,2.2l-1.8,3h-1.7l1.1-3.1C435.8,107.3,435.4,106.7,435.4,105.7z"
   id="path70" />
		<path
   fill="#010101"
   d="M459.4,89.5c-1,0-1.9,0.2-2.5,0.6s-1,1.1-1,1.9c0,0.9,0.3,1.5,1,2c0.7,0.4,2.1,0.9,4.2,1.5    c2.2,0.5,3.8,1.3,4.9,2.2c1.1,0.9,1.6,2.3,1.6,4.2s-0.7,3.3-2.1,4.5c-1.4,1.1-3.2,1.7-5.4,1.7c-3.3,0-6.2-1.1-8.7-3.4l2.2-2.7    c2.1,1.8,4.3,2.8,6.6,2.8c1.1,0,2-0.2,2.7-0.7c0.7-0.5,1-1.1,1-2c0-0.8-0.3-1.4-0.9-1.9s-1.7-0.9-3.3-1.2c-1.5-0.4-2.7-0.7-3.5-1    c-0.8-0.3-1.5-0.7-2.1-1.2c-1.2-0.9-1.9-2.4-1.9-4.3c0-1.9,0.7-3.4,2.1-4.5s3.2-1.6,5.2-1.6c1.3,0,2.7,0.2,4,0.7    c1.3,0.4,2.5,1.1,3.4,1.9l-1.9,2.7c-0.6-0.6-1.5-1-2.5-1.4C461.4,89.6,460.4,89.5,459.4,89.5z"
   id="path72" />
		<path
   fill="#010101"
   d="M484.8,105.5c-1.6,1.6-3.6,2.4-6,2.4c-2.4,0-4.4-0.8-6-2.4c-1.6-1.6-2.4-3.5-2.4-5.8    c0-2.3,0.8-4.2,2.4-5.8c1.6-1.6,3.6-2.4,6-2.4c2.4,0,4.4,0.8,6,2.4c1.6,1.6,2.4,3.5,2.4,5.8C487.2,102,486.4,103.9,484.8,105.5z     M475.2,103.4c0.9,1,2.2,1.5,3.6,1.5c1.5,0,2.7-0.5,3.6-1.5c1-1,1.4-2.2,1.4-3.8c0-1.5-0.5-2.8-1.4-3.8c-0.9-1-2.2-1.5-3.6-1.5    c-1.5,0-2.7,0.5-3.6,1.5c-1,1-1.4,2.2-1.4,3.8C473.7,101.2,474.2,102.5,475.2,103.4z"
   id="path74" />
		<path
   fill="#010101"
   d="M494.3,107.7H491V85.4h3.4V107.7z"
   id="path76" />
		<path
   fill="#010101"
   d="M503.4,107.7l-6.4-16h3.5l4.9,12.1l4.9-12.1h3.5l-6.4,16H503.4z"
   id="path78" />
		<path
   fill="#010101"
   d="M531.2,101.2h-12.5c0.1,1.2,0.6,2.1,1.6,2.8c1,0.7,2.1,1.1,3.4,1.1c2,0,3.5-0.6,4.6-1.9l1.9,2.1    c-1.7,1.8-4,2.7-6.7,2.7c-2.2,0-4.1-0.7-5.7-2.2c-1.6-1.5-2.4-3.5-2.4-6c0-2.5,0.8-4.5,2.4-6c1.6-1.5,3.5-2.2,5.7-2.2s4,0.7,5.5,2    c1.5,1.3,2.3,3.1,2.3,5.4V101.2z M518.7,98.5h9.2c0-1.3-0.4-2.4-1.3-3.1c-0.8-0.7-1.9-1.1-3.1-1.1c-1.2,0-2.3,0.4-3.3,1.1    C519.2,96.2,518.7,97.2,518.7,98.5z"
   id="path80" />
		<path
   fill="#010101"
   d="M534.5,105.7c0-0.6,0.2-1.2,0.7-1.6c0.4-0.4,1-0.6,1.6-0.6c0.6,0,1.1,0.2,1.6,0.6c0.4,0.4,0.7,0.9,0.7,1.5    c0,0.6-0.3,1.3-0.8,2.2l-1.8,3h-1.7l1.1-3.1C534.9,107.3,534.5,106.7,534.5,105.7z"
   id="path82" />
		<path
   fill="#010101"
   d="M566.8,86.7V90h-11.2v5.5h10v3.1h-10v5.6h11.5v3.3H552v-21H566.8z"
   id="path84" />
		<path
   fill="#010101"
   d="M575.4,107.7l-6.4-16h3.5l4.9,12.1l4.9-12.1h3.5l-6.4,16H575.4z"
   id="path86" />
		<path
   fill="#010101"
   d="M601.4,105.5c-1.6,1.6-3.6,2.4-6,2.4c-2.4,0-4.4-0.8-6-2.4c-1.6-1.6-2.4-3.5-2.4-5.8    c0-2.3,0.8-4.2,2.4-5.8c1.6-1.6,3.6-2.4,6-2.4c2.4,0,4.4,0.8,6,2.4c1.6,1.6,2.4,3.5,2.4,5.8C603.8,102,603,103.9,601.4,105.5z     M591.8,103.4c0.9,1,2.2,1.5,3.6,1.5c1.5,0,2.7-0.5,3.6-1.5c1-1,1.4-2.2,1.4-3.8c0-1.5-0.5-2.8-1.4-3.8c-0.9-1-2.2-1.5-3.6-1.5    c-1.5,0-2.7,0.5-3.6,1.5c-1,1-1.4,2.2-1.4,3.8C590.4,101.2,590.9,102.5,591.8,103.4z"
   id="path88" />
		<path
   fill="#010101"
   d="M611,107.7h-3.4V85.4h3.4V107.7z"
   id="path90" />
		<path
   fill="#010101"
   d="M620.1,107.7l-6.4-16h3.5l4.9,12.1l4.9-12.1h3.5l-6.4,16H620.1z"
   id="path92" />
		<path
   fill="#010101"
   d="M647.9,101.2h-12.5c0.1,1.2,0.6,2.1,1.6,2.8c1,0.7,2.1,1.1,3.4,1.1c2,0,3.5-0.6,4.6-1.9l1.9,2.1    c-1.7,1.8-4,2.7-6.7,2.7c-2.2,0-4.1-0.7-5.7-2.2c-1.6-1.5-2.4-3.5-2.4-6c0-2.5,0.8-4.5,2.4-6c1.6-1.5,3.5-2.2,5.7-2.2s4,0.7,5.5,2    c1.5,1.3,2.3,3.1,2.3,5.4V101.2z M635.3,98.5h9.2c0-1.3-0.4-2.4-1.3-3.1c-0.8-0.7-1.9-1.1-3.1-1.1c-1.2,0-2.3,0.4-3.3,1.1    C635.8,96.2,635.3,97.2,635.3,98.5z"
   id="path94" />
		<path
   fill="#A81F24"
   d="M664.4,91.3c-0.8,2.5-1.2,4.8-1.2,6.9c0,2.2,0.4,4.5,1.2,6.9c0.8,2.5,1.8,4.6,3,6.3h-4.9    c-1-1.4-1.9-3.3-2.7-5.8c-0.8-2.5-1.2-5-1.2-7.4c0-2.4,0.4-4.9,1.2-7.4c0.8-2.5,1.7-4.5,2.7-5.9h4.9    C666.2,86.8,665.2,88.9,664.4,91.3z"
   id="path96" />
		<path
   fill="#010101"
   d="M679,107.2c-0.4-0.4-0.6-1-0.6-1.6s0.2-1.1,0.6-1.6c0.4-0.4,1-0.6,1.6-0.6c0.6,0,1.1,0.2,1.6,0.6    c0.4,0.4,0.7,1,0.7,1.6s-0.2,1.2-0.7,1.6c-0.4,0.4-1,0.7-1.6,0.7C680,107.9,679.5,107.7,679,107.2z"
   id="path98" />
		<path
   fill="#010101"
   d="M695.7,107.2c-0.4-0.4-0.6-1-0.6-1.6s0.2-1.1,0.6-1.6c0.4-0.4,1-0.6,1.6-0.6c0.6,0,1.1,0.2,1.6,0.6    c0.4,0.4,0.7,1,0.7,1.6s-0.2,1.2-0.7,1.6c-0.4,0.4-1,0.7-1.6,0.7C696.6,107.9,696.1,107.7,695.7,107.2z"
   id="path100" />
		<path
   fill="#010101"
   d="M712.3,107.2c-0.4-0.4-0.6-1-0.6-1.6s0.2-1.1,0.6-1.6c0.4-0.4,1-0.6,1.6-0.6c0.6,0,1.1,0.2,1.6,0.6    c0.4,0.4,0.7,1,0.7,1.6s-0.2,1.2-0.7,1.6c-0.4,0.4-1,0.7-1.6,0.7C713.2,107.9,712.7,107.7,712.3,107.2z"
   id="path102" />
		<path
   fill="#A81F24"
   d="M730.1,105.2c0.8-2.5,1.2-4.8,1.2-6.9c0-2.1-0.4-4.5-1.2-6.9c-0.8-2.5-1.8-4.6-3-6.3h4.9    c1,1.4,1.9,3.3,2.7,5.9c0.8,2.5,1.2,5,1.2,7.4c0,2.4-0.4,4.9-1.2,7.4c-0.8,2.5-1.7,4.5-2.7,5.8H727    C728.2,109.8,729.2,107.7,730.1,105.2z"
   id="path104" />
	</g>
</g>
<g
   id="g114">
	<path
   d="M723.7,8.9h8.7v2.3h-2.9v7h-2.9v-7h-2.9V8.9z"
   id="path110" />
	<path
   d="M733.7,8.9h3.8l1.5,5.7l1.4-5.7h3.8v9.3h-2.4v-7.1l-1.8,7.1h-2.1l-1.8-7.1v7.1h-2.4V8.9z"
   id="path112" />
</g>
</svg>